<?xml version="1.0" standalone="no"?>
<!DOCTYPE svg PUBLIC "-//W3C//DTD SVG 20010904//EN"
 "http://www.w3.org/TR/2001/REC-SVG-20010904/DTD/svg10.dtd">
<svg version="1.0" xmlns="http://www.w3.org/2000/svg"
 width="225.000000pt" height="225.000000pt" viewBox="0 0 225.000000 225.000000"
 preserveAspectRatio="xMidYMid meet">
<g transform="translate(0.000000,225.000000) scale(0.100000,-0.100000)"
fill="#000000" stroke="none">
<path d="M659 2235 c-224 -36 -405 -166 -498 -357 -52 -105 -71 -182 -71 -279
0 -132 49 -251 135 -327 108 -95 295 -88 386 16 52 59 72 115 67 191 -6 107
-62 191 -152 232 -52 23 -159 25 -211 3 -46 -19 -59 -7 -49 46 17 103 128 237
241 292 65 32 73 33 183 33 110 0 118 -2 182 -33 293 -144 412 -669 258 -1134
-85 -253 -302 -574 -488 -718 -122 -95 -132 -105 -132 -134 0 -32 32 -66 63
-66 43 0 308 212 492 395 376 372 566 739 565 1089 -2 312 -136 554 -373 671
-50 25 -128 54 -172 65 -106 27 -309 35 -426 15z"/>
<path d="M1907 1850 c-74 -22 -137 -108 -137 -186 0 -53 36 -121 83 -158 35
-28 46 -31 111 -31 60 0 78 4 108 24 51 35 80 84 86 141 13 143 -116 251 -251
210z"/>
<path d="M1883 1226 c-120 -56 -149 -202 -60 -303 40 -45 82 -63 148 -63 218
0 259 309 50 379 -50 16 -80 14 -138 -13z"/>
</g>
</svg>
