<?xml version="1.0" encoding="UTF-8"?>
<svg version="1.1" xmlns="http://www.w3.org/2000/svg" width="225" height="225">
<path d="M0 0 C9.00889881 6.44643922 15.12131766 14.90834496 17.9296875 25.6796875 C18.41757845 29.0351824 18.48280632 32.29690611 18.5 35.6875 C18.51417969 36.95335937 18.52835937 38.21921875 18.54296875 39.5234375 C18.30135461 43.49573775 17.54143265 46.55284042 16.3125 50.3125 C25.8370222 45.86929858 34.498566 41.48325554 42.3125 34.3125 C43.07949219 33.63703125 43.84648437 32.9615625 44.63671875 32.265625 C53.82688229 23.71518422 59.35346241 13.1418878 63.87939453 1.60522461 C65.41716172 -2.19181913 66.61034981 -4.75502007 70.3125 -6.6875 C75.100321 -7.21948011 77.17652545 -7.41259014 81.25 -4.8125 C83.3125 -2.6875 83.3125 -2.6875 84.3125 -0.6875 C83.97826859 7.22044562 81.57655754 14.0112042 78.88671875 21.40625 C78.42632317 22.69442424 77.9668439 23.98292628 77.50820923 25.27172852 C76.52768855 28.02148094 75.54126163 30.76900949 74.54995728 33.51489258 C72.98042634 37.86266735 71.42389494 42.21502085 69.86987305 46.56835938 C68.26849944 51.05307098 66.66666747 55.53761025 65.06056213 60.02062988 C60.26900473 73.39896969 55.56540318 86.80700354 50.87979126 100.22277832 C47.72028315 109.26153651 44.54322584 118.29414864 41.36383057 127.32592773 C40.67949139 129.26996746 39.99551261 131.21413411 39.31195068 133.15844727 C37.57668123 138.09199801 35.83242467 143.02210337 34.06869507 147.94555664 C33.57429591 149.3296109 33.08312964 150.71482536 32.59561157 152.10131836 C31.94808417 153.94065315 31.28694372 155.77517907 30.625 157.609375 C30.27050781 158.60291992 29.91601562 159.59646484 29.55078125 160.62011719 C28.15622772 163.65228128 26.59526378 165.88006444 24.3125 168.3125 C20.45084846 169.43588954 18.30512141 169.7185724 14.5625 168.1875 C11.94502219 166.00626849 10.60748983 164.47803069 9.3125 161.3125 C9.74791199 155.13924785 11.74480565 149.60961736 13.78515625 143.80078125 C14.14033829 142.77444077 14.49552032 141.74810028 14.86146545 140.69065857 C16.02592753 137.33306094 17.20009794 133.9789573 18.375 130.625 C19.18297464 128.30442976 19.99075261 125.98379103 20.79833984 123.66308594 C28.42395651 101.80256961 36.31438242 80.03912398 44.3125 58.3125 C43.52746094 58.78155762 42.74242187 59.25061523 41.93359375 59.73388672 C22.85410872 71.02063116 2.37640902 76.60616117 -19.6875 78.3125 C-21.00814453 78.42078125 -21.00814453 78.42078125 -22.35546875 78.53125 C-34.49138326 79.04675787 -45.95507516 73.5176863 -54.765625 65.46484375 C-64.54745368 54.5099909 -66.59408313 42.54123424 -65.8828125 28.45214844 C-64.83457104 16.96866326 -57.61433954 8.38954998 -49.1953125 1.140625 C-34.22040384 -9.77566356 -15.47803669 -9.4500258 0 0 Z " fill="#020202" transform="translate(103.6875,34.6875)"/>
</svg>
