<?xml version="1.0" standalone="no"?>
<!DOCTYPE svg PUBLIC "-//W3C//DTD SVG 20010904//EN"
 "http://www.w3.org/TR/2001/REC-SVG-20010904/DTD/svg10.dtd">
<svg version="1.0" xmlns="http://www.w3.org/2000/svg"
 width="102.000000pt" height="258.000000pt" viewBox="0 0 102.000000 258.000000"
 preserveAspectRatio="xMidYMid meet">

<g transform="translate(0.000000,258.000000) scale(0.100000,-0.100000)"
fill="#000000" stroke="none">
<path d="M0 1290 l0 -1281 48 28 c153 88 406 252 542 351 139 102 333 321 387
439 73 158 40 326 -87 447 -135 129 -315 165 -530 105 -41 -11 -102 -33 -135
-49 -33 -16 -62 -26 -65 -24 -3 3 -6 289 -8 635 l-3 629 -74 0 -75 0 0 -1280z
m565 -88 c76 -28 90 -59 90 -202 l0 -115 -43 -87 c-65 -131 -195 -272 -382
-417 -62 -49 -65 -50 -71 -28 -4 12 -7 176 -8 365 l0 343 39 43 c41 44 122 94
174 107 56 13 150 9 201 -9z"/>
</g>
</svg>
