<?xml version="1.0" standalone="no"?>
<!DOCTYPE svg PUBLIC "-//W3C//DTD SVG 20010904//EN"
 "http://www.w3.org/TR/2001/REC-SVG-20010904/DTD/svg10.dtd">
<svg version="1.0" xmlns="http://www.w3.org/2000/svg"
 width="160.000000pt" height="400.000000pt" viewBox="0 0 160.000000 400.000000"
 preserveAspectRatio="xMidYMid meet">

<g transform="translate(0.000000,400.000000) scale(0.100000,-0.100000)"
fill="#000000" stroke="none">
<path d="M300 2401 c0 -836 3 -1522 8 -1524 4 -2 210 76 457 173 248 97 453
175 458 173 4 -2 7 -260 7 -574 l0 -569 30 0 30 0 0 1526 c0 839 -3 1523 -7
1521 -6 -4 -329 -131 -900 -354 -10 -4 -13 117 -15 568 l-3 574 -32 3 -33 3 0
-1520z m928 -233 l-3 -532 -250 -99 c-137 -54 -306 -120 -375 -147 -69 -26
-149 -58 -177 -69 l-53 -21 0 533 0 532 48 18 c26 9 216 84 422 166 206 82
378 149 383 150 4 1 6 -238 5 -531z"/>
</g>
</svg>
