<?xml version="1.0" encoding="UTF-8"?>
<svg version="1.1" xmlns="http://www.w3.org/2000/svg" width="64" height="172">
<path d="M0 0 C1.32 0 2.64 0 4 0 C9 5.22727273 9 5.22727273 9 8 C9.66 8 10.32 8 11 8 C16 13.47619048 16 13.47619048 16 16 C16.66 16 17.32 16 18 16 C19.45659977 17.61382948 20.84048951 19.29363216 22.1875 21 C25.55552779 25.21546704 28.98919443 29.32600419 32.58984375 33.34375 C35.85619485 37.18012914 36.55979834 39.59482195 36.44140625 44.48046875 C35.59419281 49.31633308 32.72840982 53.01186486 30 57 C19.46488573 72.13601059 19.46488573 72.13601059 17.40234375 89.87890625 C20.75343482 101.77199416 29.42415325 112.39049476 36.6237793 122.22949219 C38.68068794 125.05738708 40.57601663 127.79800425 42 131 C39.51738614 131.89916994 38.33508507 132.11886262 35.80859375 131.22265625 C35.02613281 130.83980469 34.24367187 130.45695313 33.4375 130.0625 C27.87236927 127.7300555 22.9785023 126.85129214 17 128 C12.29217005 130.0734334 8.97507437 132.67035314 5.9375 136.8125 C4.68995127 141.05416567 4.07158679 144.63142001 5 149 C6.38921069 151.47641906 7.91459085 153.64323856 9.6875 155.859375 C11.26299426 158.42893112 11.24851082 160.03857942 11 163 C7.0355211 162.38644969 4.4475346 160.40143734 1.25 158.0625 C-0.22726563 156.99708984 -0.22726563 156.99708984 -1.734375 155.91015625 C-2.48203125 155.27980469 -3.2296875 154.64945313 -4 154 C-4 153.34 -4 152.68 -4 152 C-4.58523438 151.76023438 -5.17046875 151.52046875 -5.7734375 151.2734375 C-8.44248591 149.74692911 -9.77846422 148.07349017 -11.625 145.625 C-12.21539063 144.85414063 -12.80578125 144.08328125 -13.4140625 143.2890625 C-18.0383282 136.61462973 -18.51220097 130.19967845 -17.375 122.25 C-16.34827832 117.44521097 -15.1885308 114.85176565 -11 112 C-4.68196751 109.11429904 2.18669242 108.08248812 9 107 C8.18208984 106.05253906 8.18208984 106.05253906 7.34765625 105.0859375 C2.90352667 99.81375643 -1.1562182 94.48883066 -4.875 88.6875 C-5.42788696 87.82680908 -5.42788696 87.82680908 -5.99194336 86.94873047 C-10.453082 79.86707 -13.47796577 74.45249843 -12 66 C-9.58665231 59.88264981 -5.83539026 54.68892711 -1.9375 49.4375 C5.43546574 39.53527429 5.43546574 39.53527429 7.5 27.6796875 C6.5528698 22.6036616 4.87583143 17.73354365 3.24609375 12.84375 C1.84341267 8.61393564 0.85882907 4.37222074 0 0 Z " fill="#1F1F1F" transform="translate(20,2)"/>
<path d="M0 0 C0.12375 0.928125 0.12375 0.928125 0.25 1.875 C0.4975 2.57625 0.745 3.2775 1 4 C1.94359375 4.41185547 1.94359375 4.41185547 2.90625 4.83203125 C5.70389051 6.39265534 6.09015457 7.85662526 7.25 10.8125 C11.68118339 21.15641745 18.03912047 30.29997 24.67456055 39.33129883 C26.71935489 42.12581031 28.58920585 44.82958897 30 48 C27.51738614 48.89916994 26.33508507 49.11886262 23.80859375 48.22265625 C23.02613281 47.83980469 22.24367187 47.45695312 21.4375 47.0625 C15.87236927 44.7300555 10.9785023 43.85129214 5 45 C0.29217005 47.0734334 -3.02492563 49.67035314 -6.0625 53.8125 C-7.31004873 58.05416567 -7.92841321 61.63142001 -7 66 C-5.61078931 68.47641906 -4.08540915 70.64323856 -2.3125 72.859375 C-0.73700574 75.42893112 -0.75148918 77.03857942 -1 80 C-4.9644789 79.38644969 -7.5524654 77.40143734 -10.75 75.0625 C-11.73484375 74.35222656 -12.7196875 73.64195312 -13.734375 72.91015625 C-14.48203125 72.27980469 -15.2296875 71.64945312 -16 71 C-16 70.34 -16 69.68 -16 69 C-16.58523437 68.76023437 -17.17046875 68.52046875 -17.7734375 68.2734375 C-20.44248591 66.74692911 -21.77846422 65.07349017 -23.625 62.625 C-24.21539063 61.85414063 -24.80578125 61.08328125 -25.4140625 60.2890625 C-30.0383282 53.61462973 -30.51220097 47.19967845 -29.375 39.25 C-28.34827832 34.44521097 -27.1885308 31.85176565 -23 29 C-16.68196751 26.11429904 -9.81330758 25.08248812 -3 24 C-4.49519686 20.78532674 -5.94204974 18.07119604 -8.1875 15.3125 C-10 13 -10 13 -10 10 C-9.34 10 -8.68 10 -8 10 C-7.34 8.68 -6.68 7.36 -6 6 C-7.65 6.33 -9.3 6.66 -11 7 C-11 6.34 -11 5.68 -11 5 C-7.36576791 2.67409146 -4.22911669 2.83734167 0 3 C0 2.01 0 1.02 0 0 Z " fill="#0B0B0B" transform="translate(32,85)"/>
<path d="M0 0 C1.32 0 2.64 0 4 0 C9 5.22727273 9 5.22727273 9 8 C9.66 8 10.32 8 11 8 C16 13.47619048 16 13.47619048 16 16 C16.66 16 17.32 16 18 16 C19.7265625 17.75 19.7265625 17.75 21.625 20 C22.57246094 21.11375 22.57246094 21.11375 23.5390625 22.25 C24.26222656 23.11625 24.26222656 23.11625 25 24 C24.67 24.66 24.34 25.32 24 26 C23.236875 25.21625 22.47375 24.4325 21.6875 23.625 C19.09108195 20.92742283 19.09108195 20.92742283 16 19 C16.474375 19.495 16.94875 19.99 17.4375 20.5 C19.62167907 23.99468651 19.65913911 26.90966936 20 31 C18.88625 30.979375 17.7725 30.95875 16.625 30.9375 C13.16784079 30.73619282 13.16784079 30.73619282 11 32 C10.67 27.38 10.34 22.76 10 18 C9.34 18 8.68 18 8 18 C8 18.99 8 19.98 8 21 C7.34 21 6.68 21 6 21 C4.99263372 18.06497405 3.99539496 15.12660539 3 12.1875 C2.71382812 11.35412109 2.42765625 10.52074219 2.1328125 9.66210938 C1.72675781 8.45844727 1.72675781 8.45844727 1.3125 7.23046875 C1.06113281 6.49207764 0.80976563 5.75368652 0.55078125 4.99291992 C0 3 0 3 0 0 Z " fill="#282828" transform="translate(20,2)"/>
<path d="M0 0 C1.63001953 0.01353516 1.63001953 0.01353516 3.29296875 0.02734375 C4.12441406 0.03894531 4.95585938 0.05054687 5.8125 0.0625 C5.8125 0.3925 5.8125 0.7225 5.8125 1.0625 C5.12285156 1.06507813 4.43320312 1.06765625 3.72265625 1.0703125 C-3.69037164 1.37537538 -8.66943978 3.00724483 -14.1875 8.0625 C-17.111004 12.04909636 -17.8143239 15.83206168 -17.69140625 20.69140625 C-16.90143116 24.40857586 -14.84410682 26.99174148 -12.5 29.921875 C-10.92450574 32.49143112 -10.93898918 34.10107942 -11.1875 37.0625 C-14.90165741 36.42901054 -17.37880299 34.77592582 -20.4375 32.625 C-21.32953125 32.00753906 -22.2215625 31.39007813 -23.140625 30.75390625 C-23.81609375 30.19574219 -24.4915625 29.63757813 -25.1875 29.0625 C-25.1875 28.4025 -25.1875 27.7425 -25.1875 27.0625 C-23.5375 27.3925 -21.8875 27.7225 -20.1875 28.0625 C-20.1875 27.4025 -20.1875 26.7425 -20.1875 26.0625 C-19.5275 26.0625 -18.8675 26.0625 -18.1875 26.0625 C-18.5175 25.546875 -18.8475 25.03125 -19.1875 24.5 C-20.79580584 20.57975452 -20.8444366 17.09624983 -19.53515625 13.04296875 C-17.2173685 7.84038079 -13.91173668 4.23025963 -9.1875 1.0625 C-5.90230525 -0.03256492 -3.45086585 -0.03710608 0 0 Z " fill="#252525" transform="translate(42.1875,127.9375)"/>
<path d="M0 0 C0.66 0 1.32 0 2 0 C2.433125 1.19625 2.86625 2.3925 3.3125 3.625 C4.6529584 7.21232201 6.21821184 10.60611779 8 14 C9.65 14 11.3 14 13 14 C13 15.32 13 16.64 13 18 C13.99 17.34 14.98 16.68 16 16 C16.99 16.33 17.98 16.66 19 17 C17.625 19 17.625 19 16 21 C15.34 21 14.68 21 14 21 C15.6380249 24.51005335 17.03134491 27.45543849 20 30 C19.67 30.66 19.34 31.32 19 32 C14.48686809 27.32723963 10.7475471 22.32843595 7.25 16.875 C6.87367432 16.28960449 6.49734863 15.70420898 6.10961914 15.10107422 C-0 5.41785281 -0 5.41785281 0 0 Z " fill="#202020" transform="translate(8,74)"/>
<path d="M0 0 C0.88935377 3.303314 1.46274105 6.62294375 2 10 C2.66 10 3.32 10 4 10 C4.33 9.34 4.66 8.68 5 8 C5 8.99 5 9.98 5 11 C5.99 11.33 6.98 11.66 8 12 C7.01 12 6.02 12 5 12 C5.66 15.3 6.32 18.6 7 22 C6.01 22 5.02 22 4 22 C3.15675328 20.421924 2.32576082 18.8372958 1.5 17.25 C1.0359375 16.36828125 0.571875 15.4865625 0.09375 14.578125 C-1 12 -1 12 -1 8 C-1.66 8 -2.32 8 -3 8 C-2.37240135 5.07120629 -1.41377341 2.63904371 0 0 Z " fill="#0D0D0D" transform="translate(11,66)"/>
<path d="M0 0 C2.939682 2.75515651 5.0831135 5.46843106 7.125 8.9375 C7.87136719 10.18853516 7.87136719 10.18853516 8.6328125 11.46484375 C9.96025833 13.92630759 11.01733003 16.38422614 12 19 C11.195625 19.12375 10.39125 19.2475 9.5625 19.375 C8.716875 19.58125 7.87125 19.7875 7 20 C6.67 20.66 6.34 21.32 6 22 C5.34 21.34 4.68 20.68 4 20 C4.19921875 18.15234375 4.19921875 18.15234375 4.6875 15.9375 C5.4273524 10.85718016 3.85455199 8.05866752 1.12890625 3.84765625 C0 2 0 2 0 0 Z M6 17 C7 19 7 19 7 19 Z " fill="#282828" transform="translate(40,101)"/>
<path d="M0 0 C0.93742691 2.49604033 1.17432463 3.59526369 0.1015625 6.0859375 C-0.38570312 6.84132813 -0.87296875 7.59671875 -1.375 8.375 C-1.92671875 9.24511719 -2.4784375 10.11523438 -3.046875 11.01171875 C-3.69140625 11.99785156 -4.3359375 12.98398437 -5 14 C-6.15129237 15.78531537 -7.29964767 17.57249757 -8.44775391 19.35986328 C-9.21221209 20.54666003 -9.97993412 21.73136308 -10.75146484 22.91357422 C-13.3202428 26.86422474 -15.69229057 30.89102417 -18 35 C-19 32 -19 32 -18.06640625 29.6875 C-14.71366801 23.69611323 -11.02232144 18.2145942 -6.90234375 12.7265625 C-4.10463897 8.71671047 -2.00689024 4.44796346 0 0 Z " fill="#464646" transform="translate(27,36)"/>
<path d="M0 0 C0.66 0 1.32 0 2 0 C3.30251268 5.86130707 3.52771213 12.02522535 3 18 C2.34 18.66 1.68 19.32 1 20 C-0.49731007 17.00537986 -0.41447434 13.85351141 -0.625 10.5625 C-0.6765625 9.88123047 -0.728125 9.19996094 -0.78125 8.49804688 C-0.99328292 5.31443496 -1.01953065 3.05859194 0 0 Z " fill="#1C1C1C" transform="translate(28,20)"/>
<path d="M0 0 C0.66 0 1.32 0 2 0 C2.350625 1.0725 2.70125 2.145 3.0625 3.25 C4.94360354 8.37027207 7.79748911 12.84556178 10.671875 17.4609375 C11.11015625 18.29882812 11.5484375 19.13671875 12 20 C11.67 20.66 11.34 21.32 11 22 C0 6.92134831 0 6.92134831 0 0 Z " fill="#363636" transform="translate(8,74)"/>
<path d="M0 0 C0.99 0.33 1.98 0.66 3 1 C3.33 2.65 3.66 4.3 4 6 C-1.36095333 7.12862175 -6.55306686 7.09688221 -12 7 C-9.47519307 4.47519307 -7.86176966 4.44261367 -4.375 3.875 C-3.37210938 3.70742187 -2.36921875 3.53984375 -1.3359375 3.3671875 C-0.17964844 3.18542969 -0.17964844 3.18542969 1 3 C0.67 2.01 0.34 1.02 0 0 Z " fill="#373737" transform="translate(28,106)"/>
<path d="M0 0 C2.475 0.495 2.475 0.495 5 1 C3.93453047 3.13093906 2.70840281 4.36587557 1 6 C0.67 4.02 0.34 2.04 0 0 Z M-2 5 C-1.01 5.33 -0.02 5.66 1 6 C0.67 7.65 0.34 9.3 0 11 C-0.99 11 -1.98 11 -3 11 C-3.042721 9.33388095 -3.04063832 7.66617115 -3 6 C-2.67 5.67 -2.34 5.34 -2 5 Z " fill="#262626" transform="translate(27,43)"/>
<path d="M0 0 C2.86867231 1.38264837 5.56024032 2.92148553 8.25 4.625 C8.95640625 5.07101563 9.6628125 5.51703125 10.390625 5.9765625 C10.92171875 6.31429687 11.4528125 6.65203125 12 7 C11.67 5.68 11.34 4.36 11 3 C11.99 3.66 12.98 4.32 14 5 C14.1875 7.625 14.1875 7.625 14 10 C10.28584259 9.36651054 7.80869701 7.71342582 4.75 5.5625 C3.85796875 4.94503906 2.9659375 4.32757813 2.046875 3.69140625 C1.37140625 3.13324219 0.6959375 2.57507813 0 2 C0 1.34 0 0.68 0 0 Z " fill="#505050" transform="translate(17,155)"/>
<path d="M0 0 C0.99 0 1.98 0 3 0 C3.66 2.31 4.32 4.62 5 7 C5.66 7 6.32 7 7 7 C7.2475 7.5775 7.495 8.155 7.75 8.75 C9.16683317 11.3002997 10.87627537 13.01785701 13 15 C10 15 10 15 8.28125 13.49609375 C4.53921428 9.1714165 1.91276463 5.40074718 0 0 Z " fill="#3B3B3B" transform="translate(3,138)"/>
<path d="M0 0 C1 3 1 3 1 6 C0.01 6.495 0.01 6.495 -1 7 C-1.90343684 8.88263881 -1.90343684 8.88263881 -2.625 11.0625 C-2.88539062 11.79597656 -3.14578125 12.52945313 -3.4140625 13.28515625 C-3.60742188 13.85105469 -3.80078125 14.41695312 -4 15 C-4.66 15 -5.32 15 -6 15 C-5.71517632 13.58194169 -5.42181856 12.16559621 -5.125 10.75 C-4.96257813 9.96109375 -4.80015625 9.1721875 -4.6328125 8.359375 C-4.00849925 6.03168856 -3.15161458 4.10968048 -2 2 C-1.34 2 -0.68 2 0 2 C0 1.34 0 0.68 0 0 Z " fill="#090909" transform="translate(40,67)"/>
<path d="M0 0 C0.66 0 1.32 0 2 0 C0.23570801 4.97209562 -2.3939166 9.43438061 -5 14 C-6 11 -6 11 -4.78515625 8.30078125 C-4.21667969 7.31464844 -3.64820313 6.32851563 -3.0625 5.3125 C-2.49660156 4.31863281 -1.93070313 3.32476562 -1.34765625 2.30078125 C-0.90292969 1.54152344 -0.45820313 0.78226563 0 0 Z " fill="#3B3B3B" transform="translate(14,57)"/>
<path d="M0 0 C0.99 1.32 1.98 2.64 3 4 C2.67 4.66 2.34 5.32 2 6 C0 5 -2 4 -4 3 C-4.33 3.66 -4.66 4.32 -5 5 C-4.67 3.68 -4.34 2.36 -4 1 C-2.68 0.67 -1.36 0.34 0 0 Z " fill="#0D0D0D" transform="translate(41,105)"/>
<path d="M0 0 C0.66 0 1.32 0 2 0 C2.33 3.96 2.66 7.92 3 12 C2.67 12 2.34 12 2 12 C1.87625 11.195625 1.7525 10.39125 1.625 9.5625 C1.315625 8.2940625 1.315625 8.2940625 1 7 C0.34 6.67 -0.32 6.34 -1 6 C-0.67 4.02 -0.34 2.04 0 0 Z " fill="#0F0F0F" transform="translate(28,20)"/>
<path d="M0 0 C1.1725131 0.95117134 2.33787015 1.91117009 3.5 2.875 C4.47453125 3.67550781 4.47453125 3.67550781 5.46875 4.4921875 C5.9740625 4.98976563 6.479375 5.48734375 7 6 C7 6.66 7 7.32 7 8 C7.66 8 8.32 8 9 8 C8.67 8.66 8.34 9.32 8 10 C1.42857143 5 1.42857143 5 0 0 Z " fill="#080808" transform="translate(35,19)"/>
<path d="M0 0 C1.32 0 2.64 0 4 0 C4 0.66 4 1.32 4 2 C3.34 2 2.68 2 2 2 C2.350625 2.763125 2.70125 3.52625 3.0625 4.3125 C4 7 4 7 3 10 C0 3.375 0 3.375 0 0 Z " fill="#4E4E4E" transform="translate(20,2)"/>
<path d="M0 0 C2.7972908 2.06756277 3.02692273 3.14440371 3.6875 6.6875 C3.790625 7.780625 3.89375 8.87375 4 10 C3.34 10 2.68 10 2 10 C0.68373308 6.38026598 0 3.90432869 0 0 Z " fill="#3D3D3D" transform="translate(24,13)"/>
</svg>
