<?xml version="1.0" standalone="no"?>
<!DOCTYPE svg PUBLIC "-//W3C//DTD SVG 20010904//EN"
 "http://www.w3.org/TR/2001/REC-SVG-20010904/DTD/svg10.dtd">
<svg version="1.0" xmlns="http://www.w3.org/2000/svg"
 width="164.000000pt" height="415.000000pt" viewBox="0 0 164.000000 415.000000"
 preserveAspectRatio="xMidYMid meet">

<g transform="translate(0.000000,415.000000) scale(0.100000,-0.100000)"
fill="#000000" stroke="none">
<path d="M863 4109 c-67 -19 -181 -184 -234 -337 -33 -95 -49 -226 -49 -397 0
-184 9 -273 47 -470 l27 -139 -75 -65 c-134 -117 -313 -304 -367 -383 -71
-104 -125 -214 -158 -323 -24 -80 -27 -107 -28 -235 -1 -171 13 -236 81 -380
119 -254 350 -440 615 -494 85 -18 250 -21 313 -6 26 6 42 5 46 -1 18 -29 44
-276 44 -414 0 -134 -3 -157 -24 -210 -33 -84 -109 -158 -187 -181 -81 -23
-201 -15 -274 19 l-55 25 48 1 c90 2 180 72 202 158 38 144 -64 278 -210 277
-174 0 -284 -184 -203 -339 30 -58 107 -134 164 -163 58 -29 140 -45 224 -45
178 0 290 74 348 231 20 55 25 91 29 197 5 122 -4 210 -42 435 l-6 35 68 27
c253 102 428 388 410 670 -22 347 -301 596 -644 574 -81 -5 -92 -3 -97 12 -2
9 -19 86 -37 169 l-32 153 35 42 c144 176 283 474 335 718 27 130 25 347 -6
465 -45 176 -144 336 -228 371 -36 16 -36 16 -80 3z m142 -383 c45 -19 67 -65
73 -152 11 -172 -97 -414 -291 -652 -32 -40 -61 -72 -63 -70 -12 13 -34 230
-34 342 0 371 139 605 315 532z m-219 -1418 c18 -73 33 -140 33 -148 0 -8 -22
-26 -50 -39 -28 -12 -76 -47 -108 -77 -157 -145 -196 -377 -96 -574 29 -58
102 -125 162 -151 57 -24 163 -37 163 -20 0 6 -6 13 -12 15 -111 32 -160 68
-194 141 -47 101 -26 232 52 324 32 38 110 91 134 91 13 0 32 -83 104 -446 48
-246 84 -450 79 -455 -18 -17 -135 -39 -209 -39 -291 1 -543 180 -627 445 -18
58 -22 93 -21 200 0 115 3 139 28 210 55 161 161 308 373 518 81 81 149 145
151 143 2 -3 19 -64 38 -138z m378 -446 c150 -68 236 -213 236 -401 0 -127
-32 -222 -109 -324 -38 -52 -147 -140 -164 -134 -6 2 -21 52 -34 113 -47 218
-153 749 -153 763 0 22 163 10 224 -17z"/>
</g>
</svg>
