<?xml version="1.0" standalone="no"?>
<!DOCTYPE svg PUBLIC "-//W3C//DTD SVG 20010904//EN"
 "http://www.w3.org/TR/2001/REC-SVG-20010904/DTD/svg10.dtd">
<svg version="1.0" xmlns="http://www.w3.org/2000/svg"
 width="527.000000pt" height="640.000000pt" viewBox="0 0 527.000000 640.000000"
 preserveAspectRatio="xMidYMid meet">

<g transform="translate(0.000000,640.000000) scale(0.100000,-0.100000)"
fill="#000000" stroke="none">
<path d="M3538 5578 l-3 -822 -985 -157 c-542 -87 -997 -160 -1012 -163 l-28
-5 0 879 0 880 -255 0 -255 0 0 -920 c0 -506 -2 -920 -3 -920 -8 0 -945 -151
-971 -156 l-29 -6 8 -557 c4 -306 8 -557 8 -557 1 -1 224 35 495 80 l492 83 0
-464 c0 -254 -2 -463 -5 -463 -19 0 -940 -151 -944 -155 -5 -6 -44 -1016 -38
-1021 2 -2 223 29 493 69 l489 73 5 -635 5 -636 250 0 250 0 5 675 5 674 990
148 c545 81 1000 147 1013 148 l22 0 0 -825 0 -825 250 0 250 0 0 864 0 864
33 6 c17 3 293 44 612 91 319 48 580 87 582 88 3 4 -186 1039 -191 1045 -3 2
-233 -32 -513 -77 -279 -45 -511 -81 -515 -81 -5 0 -8 213 -8 473 l0 474 588
97 c323 54 589 100 591 102 6 6 -181 1028 -190 1038 -5 6 -197 -21 -491 -67
-266 -43 -486 -77 -490 -77 -5 0 -8 351 -8 780 l0 780 -250 0 -250 0 -2 -822z
m0 -2390 l-3 -472 -985 -157 c-542 -87 -997 -160 -1012 -163 l-28 -5 0 464 c0
256 1 465 3 466 17 4 1997 337 2010 338 16 1 17 -26 15 -471z"/>
</g>
</svg>
